<svg width="140" height="14" viewBox="0 0 140 14" fill="none" xmlns="http://www.w3.org/2000/svg">
<g clip-path="url(#clip0_19_98)">
<path d="M8.48633 1.72266H1.66016V5.73828H7.71875V7.18359H1.66016V13.7246H0V0.276367H8.48633V1.72266Z" fill="white"/>
<path d="M19.2393 13.7246L17.8564 9.8877H12.0205L10.6367 13.7246H8.9502L13.9297 0.276367H16.0449L21.0156 13.7246H19.2393ZM17.3564 8.50391L14.9385 1.87402L12.5283 8.50391H17.3564Z" fill="white"/>
<path d="M41.4473 13.7246H32.6934V0.276367H41.4473V1.72266H34.3535V5.63965H41.2686V7.08496H34.3535V12.2793H41.4473V13.7246Z" fill="white"/>
<path d="M54.1104 0.276367L49.4434 6.9248L54.1006 13.7246H52.165L48.4346 8.09375L44.6064 13.7246H42.7949L47.5068 7.00488L42.9023 0.276367H44.8291L48.5146 5.83594L52.2891 0.276367H54.1104Z" fill="white"/>
<path d="M66.4961 13.7246H64.8359V7.07617H57.876V13.7246H56.2158V0.276367H57.876V5.63965H64.8359V0.276367H66.4961V13.7246Z" fill="white"/>
<path d="M74.4199 13.7246H69.2354V12.4844H71.002V1.5166H69.2354V0.276367H74.4199V1.5166H72.6621V12.4844H74.4199V13.7246Z" fill="white"/>
<path d="M77.1689 13.7246V0.276367H81.1309C81.7373 0.276367 82.2539 0.288086 82.6787 0.3125C83.1045 0.335938 83.542 0.413086 83.9912 0.543945C84.4395 0.674805 84.8252 0.873047 85.1465 1.1377C85.4678 1.40234 85.7061 1.71289 85.8604 2.07031C86.0146 2.42676 86.0928 2.83496 86.0928 3.29297C86.0928 4.48242 85.4912 5.39844 84.29 6.04102V6.1123C85.2002 6.30273 85.9111 6.70312 86.4229 7.3125C86.9346 7.92285 87.1895 8.67969 87.1895 9.58398C87.1895 10.8633 86.7305 11.873 85.8115 12.6133C84.8916 13.3545 83.582 13.7246 81.8799 13.7246H77.1689ZM78.8281 1.68652V5.77344H81.2285C82.3887 5.77344 83.2012 5.58594 83.665 5.21094C84.1289 4.83691 84.3613 4.25977 84.3613 3.48047C84.3613 2.93848 84.1768 2.50488 83.8076 2.17773C83.4395 1.85059 82.5107 1.68652 81.0234 1.68652H78.8281ZM78.8281 7.14746V12.3145H81.2471C82.9541 12.3145 84.083 12.0781 84.6328 11.6055C85.1836 11.1318 85.459 10.4941 85.459 9.69141C85.459 9.16797 85.3574 8.71973 85.1553 8.34766C84.9531 7.97656 84.6367 7.68359 84.2051 7.46875C83.7734 7.25488 82.9365 7.14746 81.6934 7.14746H78.8281Z" fill="white"/>
<path d="M94.0879 13.7246H88.9033V12.4844H90.6699V1.5166H88.9033V0.276367H94.0879V1.5166H92.3301V12.4844H94.0879V13.7246Z" fill="white"/>
<path d="M100.165 13.7246V1.72266H95.3906V0.276367H106.599V1.72266H101.824V13.7246H100.165Z" fill="white"/>
<path d="M113.077 13.7246H107.893V12.4844H109.659V1.5166H107.893V0.276367H113.077V1.5166H111.319V12.4844H113.077V13.7246Z" fill="white"/>
<path d="M121.136 14.001C119.226 14.001 117.727 13.3838 116.638 12.1494C115.549 10.915 115.005 9.2002 115.005 7.00488C115.005 4.81543 115.551 3.10059 116.643 1.86035C117.734 0.620117 119.231 0 121.136 0C123.045 0 124.546 0.620117 125.638 1.86035C126.729 3.10059 127.274 4.81543 127.274 7.00488C127.274 9.18848 126.729 10.9004 125.638 12.1406C124.546 13.3809 123.045 14.001 121.136 14.001ZM121.145 1.41895C119.752 1.41895 118.67 1.90625 117.896 2.88281C117.123 3.8584 116.736 5.23242 116.736 7.00488C116.736 8.77832 117.123 10.1504 117.896 11.123C118.67 12.0957 119.752 12.582 121.145 12.582C122.53 12.582 123.61 12.0957 124.384 11.123C125.157 10.1504 125.544 8.77832 125.544 7.00488C125.544 5.2207 125.157 3.84277 124.384 2.87305C123.61 1.90332 122.53 1.41895 121.145 1.41895Z" fill="white"/>
<path d="M140 13.7246H138.072L131.3 2.05273V13.7246H129.756V0.276367H132.058L138.456 11.3066V0.276367H140V13.7246Z" fill="white"/>
</g>
<defs>
<clipPath id="clip0_19_98">
<rect width="140" height="14.001" fill="white"/>
</clipPath>
</defs>
</svg>
